<svg width="60" height="60" viewBox="0 0 60 60" fill="none" xmlns="http://www.w3.org/2000/svg">
  <rect width="60" height="60" rx="30" fill="#F0F4F8"/>
  <path d="M40 22H36C35.4477 22 35 22.4477 35 23C35 23.5523 35.4477 24 36 24H40C41.1046 24 42 24.8954 42 26V40C42 41.1046 41.1046 42 40 42H20C18.8954 42 18 41.1046 18 40V26C18 24.8954 18.8954 24 20 24H24C24.5523 24 25 23.5523 25 23C25 22.4477 24.5523 22 24 22H20C17.7909 22 16 23.7909 16 26V40C16 42.2091 17.7909 44 20 44H40C42.2091 44 44 42.2091 44 40V26C44 23.7909 42.2091 22 40 22Z" fill="#2563EB"/>
  <path d="M29.2929 32.7071C29.6834 33.0976 30.3166 33.0976 30.7071 32.7071L37.7071 25.7071C38.0976 25.3166 38.0976 24.6834 37.7071 24.2929C37.3166 23.9024 36.6834 23.9024 36.2929 24.2929L30 30.5858L23.7071 24.2929C23.3166 23.9024 22.6834 23.9024 22.2929 24.2929C21.9024 24.6834 21.9024 25.3166 22.2929 25.7071L29.2929 32.7071Z" fill="#2563EB"/>
</svg>